<?xml version="1.0" encoding="UTF-8" standalone="no"?>
<!-- Creator: CorelDRAW -->

<svg
   xmlns:dc="http://purl.org/dc/elements/1.1/"
   xmlns:cc="http://creativecommons.org/ns#"
   xmlns:rdf="http://www.w3.org/1999/02/22-rdf-syntax-ns#"
   xmlns:svg="http://www.w3.org/2000/svg"
   xmlns="http://www.w3.org/2000/svg"
   xmlns:sodipodi="http://sodipodi.sourceforge.net/DTD/sodipodi-0.dtd"
   xmlns:inkscape="http://www.inkscape.org/namespaces/inkscape"
   xml:space="preserve"
   width="2335px"
   height="423px"
   shape-rendering="geometricPrecision"
   text-rendering="geometricPrecision"
   image-rendering="optimizeQuality"
   fill-rule="evenodd"
   clip-rule="evenodd"
   viewBox="0 0 2385.69 432.029"
   id="svg2"
   version="1.1"
   inkscape:version="0.48.1 r9760"
   sodipodi:docname="Universität_Bremen.svg"><metadata
   id="metadata60"><rdf:RDF><cc:Work
       rdf:about=""><dc:format>image/svg+xml</dc:format><dc:type
         rdf:resource="http://purl.org/dc/dcmitype/StillImage" /><dc:title></dc:title></cc:Work></rdf:RDF></metadata><defs
   id="defs58">
  
  
  
  
  
  
  
  
  
  
  
  
  
  
  
  
  
  
  
  
  
  
  
  
  
  
 </defs><sodipodi:namedview
   pagecolor="#ffffff"
   bordercolor="#666666"
   borderopacity="1"
   objecttolerance="10"
   gridtolerance="10"
   guidetolerance="10"
   inkscape:pageopacity="0"
   inkscape:pageshadow="2"
   inkscape:window-width="1235"
   inkscape:window-height="771"
   id="namedview56"
   showgrid="false"
   inkscape:zoom="0.47537473"
   inkscape:cx="1167.5"
   inkscape:cy="211.5"
   inkscape:window-x="45"
   inkscape:window-y="0"
   inkscape:window-maximized="1"
   inkscape:current-layer="svg2" />
 <g
   id="g3073"
   transform="translate(26.636345,15.055328)"
   inkscape:export-filename="/home/sajin/Thesis/wordgap/Präsi/img/uni.png"
   inkscape:export-xdpi="101.7"
   inkscape:export-ydpi="101.7"><path
     d="m 149.742,197.616 c -0.15205,43.2992 34.3382,77.238 75.5414,77.238 41.6678,0 75.5462,-33.9388 75.5462,-77.238 l 0,-197.616 -37.6977,0 0,197.616 c 0,21.5712 -16.9362,38.0657 -37.8485,38.0657 -20.1436,0 -37.8449,-17.1281 -37.8449,-38.0657 l 0,-118.789 -37.6965,0 0,118.789 z"
     id="path40"
     inkscape:connector-curvature="0"
     style="fill:#c4263a" /><polygon
     points="0,0 0,39.3328 36.3522,39.3328 36.3522,0 "
     id="polygon42"
     style="fill:#c4263a" /><polygon
     points="36.3522,39.3328 36.3522,78.6668 74.0439,78.6668 74.0439,39.3328 "
     id="polygon44"
     style="fill:#c4263a" /><polygon
     points="74.0439,0 74.0439,39.3328 111.894,39.3328 111.894,0 "
     id="polygon46"
     style="fill:#c4263a" /><polygon
     points="149.742,0 187.439,0 187.439,39.3328 149.742,39.3328 "
     id="polygon48"
     style="fill:#c4263a" /><polygon
     points="111.894,39.3328 149.742,39.3328 149.742,78.6668 111.894,78.6668 "
     id="polygon50"
     style="fill:#c4263a" /><path
     d="m 452.069,0.160493 0,197.455997 c 0,129.577 -101.64,234.413 -226.629,234.413 -116.099,0 -212.509,-90.6868 -225.44,-207.605 l 0,-145.757997 36.3522,0 0,118.948997 c 0,108.009 85.0056,195.081 189.088,195.081 104.081,0 188.779,-87.0715 188.779,-195.081 l 0,-197.615997 37.8497,0.160493 z"
     id="path52"
     inkscape:connector-curvature="0"
     style="fill:#c4263a" /><path
     d="m 338.678,0 0,197.616 c 0,64.8704 -50.9751,116.571 -113.395,116.571 -62.5704,0 -113.39,-51.7004 -113.39,-116.571 l 0,-119.106 -37.8497,0 0,119.106 c 0,86.438 67.9138,155.748 151.24,155.748 83.3307,0 151.092,-69.3099 151.092,-155.748 l 0,-197.456 -37.6977,-0.160493 z"
     id="path54"
     inkscape:connector-curvature="0"
     style="fill:#c4263a" /></g>
</svg>